<mxfile host="app.diagrams.net" modified="2023-07-11T06:19:06.362Z" agent="Mozilla/5.0 (Macintosh; Intel Mac OS X 10_15_7) AppleWebKit/537.36 (KHTML, like Gecko) Chrome/114.0.0.0 Safari/537.36" etag="1L2D9WKbyCTUeQob0AqR" version="21.6.1" type="device">
  <diagram name="Page-1" id="ZQLPf1fucB-6a7tWxrR4">
    <mxGraphModel dx="954" dy="1650" grid="1" gridSize="10" guides="1" tooltips="1" connect="1" arrows="1" fold="1" page="1" pageScale="1" pageWidth="850" pageHeight="1100" math="0" shadow="0">
      <root>
        <mxCell id="0" />
        <mxCell id="1" parent="0" />
        <mxCell id="9QbvSYVYQkTE8SDcvhou-1" value="Client" style="rounded=0;whiteSpace=wrap;html=1;fontSize=18;fillColor=#dae8fc;strokeColor=#6c8ebf;" vertex="1" parent="1">
          <mxGeometry x="390" y="280" width="160" height="30" as="geometry" />
        </mxCell>
        <mxCell id="9QbvSYVYQkTE8SDcvhou-2" value="Server" style="rounded=0;whiteSpace=wrap;html=1;fontSize=18;fillColor=#dae8fc;strokeColor=#6c8ebf;" vertex="1" parent="1">
          <mxGeometry x="680" y="280" width="160" height="30" as="geometry" />
        </mxCell>
        <mxCell id="9QbvSYVYQkTE8SDcvhou-3" value="" style="endArrow=none;html=1;fontSize=18;fillColor=#f5f5f5;strokeColor=#666666;opacity=20;dashed=1;" edge="1" parent="1">
          <mxGeometry width="50" height="50" relative="1" as="geometry">
            <mxPoint x="470" y="610" as="sourcePoint" />
            <mxPoint x="470" y="310" as="targetPoint" />
          </mxGeometry>
        </mxCell>
        <mxCell id="9QbvSYVYQkTE8SDcvhou-4" value="" style="endArrow=none;html=1;fontSize=18;fillColor=#f5f5f5;strokeColor=#666666;opacity=20;dashed=1;" edge="1" parent="1">
          <mxGeometry width="50" height="50" relative="1" as="geometry">
            <mxPoint x="760" y="610" as="sourcePoint" />
            <mxPoint x="759.8" y="310" as="targetPoint" />
          </mxGeometry>
        </mxCell>
        <mxCell id="9QbvSYVYQkTE8SDcvhou-5" style="edgeStyle=orthogonalEdgeStyle;rounded=0;orthogonalLoop=1;jettySize=auto;html=1;exitX=1;exitY=0.5;exitDx=0;exitDy=0;fontSize=10;" edge="1" parent="1" source="9QbvSYVYQkTE8SDcvhou-6" target="9QbvSYVYQkTE8SDcvhou-9">
          <mxGeometry relative="1" as="geometry" />
        </mxCell>
        <mxCell id="9QbvSYVYQkTE8SDcvhou-6" value="POST /auth/signup" style="rounded=0;whiteSpace=wrap;html=1;fontSize=10;fontStyle=1;fillColor=#f5f5f5;strokeColor=#666666;fontColor=#333333;" vertex="1" parent="1">
          <mxGeometry x="470" y="320" width="100" height="20" as="geometry" />
        </mxCell>
        <mxCell id="9QbvSYVYQkTE8SDcvhou-7" value="{ email, password }" style="rounded=0;whiteSpace=wrap;html=1;fontSize=10;fillColor=#f5f5f5;strokeColor=#666666;fontColor=#333333;" vertex="1" parent="1">
          <mxGeometry x="470" y="340" width="100" height="20" as="geometry" />
        </mxCell>
        <mxCell id="9QbvSYVYQkTE8SDcvhou-8" style="edgeStyle=orthogonalEdgeStyle;rounded=0;orthogonalLoop=1;jettySize=auto;html=1;exitX=0.5;exitY=1;exitDx=0;exitDy=0;entryX=0.5;entryY=0;entryDx=0;entryDy=0;fontSize=10;" edge="1" parent="1" source="9QbvSYVYQkTE8SDcvhou-9" target="9QbvSYVYQkTE8SDcvhou-11">
          <mxGeometry relative="1" as="geometry" />
        </mxCell>
        <mxCell id="9QbvSYVYQkTE8SDcvhou-9" value="See if this email is already in use. If it is, return an error" style="rounded=0;whiteSpace=wrap;html=1;fontSize=10;fontStyle=0" vertex="1" parent="1">
          <mxGeometry x="680" y="320" width="160" height="40" as="geometry" />
        </mxCell>
        <mxCell id="9QbvSYVYQkTE8SDcvhou-10" style="edgeStyle=orthogonalEdgeStyle;rounded=0;orthogonalLoop=1;jettySize=auto;html=1;exitX=0.5;exitY=1;exitDx=0;exitDy=0;fontSize=10;" edge="1" parent="1" source="9QbvSYVYQkTE8SDcvhou-11" target="9QbvSYVYQkTE8SDcvhou-13">
          <mxGeometry relative="1" as="geometry" />
        </mxCell>
        <mxCell id="9QbvSYVYQkTE8SDcvhou-11" value="Encrypt the users&#39;s password" style="rounded=0;whiteSpace=wrap;html=1;fontSize=10;fontStyle=0" vertex="1" parent="1">
          <mxGeometry x="680" y="370" width="160" height="20" as="geometry" />
        </mxCell>
        <mxCell id="9QbvSYVYQkTE8SDcvhou-12" style="edgeStyle=orthogonalEdgeStyle;rounded=0;orthogonalLoop=1;jettySize=auto;html=1;exitX=0.5;exitY=1;exitDx=0;exitDy=0;entryX=0.5;entryY=0;entryDx=0;entryDy=0;fontSize=10;" edge="1" parent="1" source="9QbvSYVYQkTE8SDcvhou-13" target="9QbvSYVYQkTE8SDcvhou-15">
          <mxGeometry relative="1" as="geometry" />
        </mxCell>
        <mxCell id="9QbvSYVYQkTE8SDcvhou-13" value="Store the new user record" style="rounded=0;whiteSpace=wrap;html=1;fontSize=10;fontStyle=0" vertex="1" parent="1">
          <mxGeometry x="680" y="400" width="160" height="20" as="geometry" />
        </mxCell>
        <mxCell id="9QbvSYVYQkTE8SDcvhou-14" style="edgeStyle=orthogonalEdgeStyle;rounded=0;orthogonalLoop=1;jettySize=auto;html=1;exitX=0;exitY=0.5;exitDx=0;exitDy=0;fontSize=10;" edge="1" parent="1" source="9QbvSYVYQkTE8SDcvhou-15">
          <mxGeometry relative="1" as="geometry">
            <mxPoint x="550" y="445.20000000000005" as="targetPoint" />
          </mxGeometry>
        </mxCell>
        <mxCell id="9QbvSYVYQkTE8SDcvhou-15" value="Send back a cookie that contains the user&#39;s id" style="rounded=0;whiteSpace=wrap;html=1;fontSize=10;fontStyle=0" vertex="1" parent="1">
          <mxGeometry x="680" y="430" width="160" height="30" as="geometry" />
        </mxCell>
        <mxCell id="9QbvSYVYQkTE8SDcvhou-16" value="Cookie" style="rounded=0;whiteSpace=wrap;html=1;fontSize=10;fontStyle=1;fillColor=#f5f5f5;strokeColor=#666666;fontColor=#333333;" vertex="1" parent="1">
          <mxGeometry x="570" y="407" width="100" height="20" as="geometry" />
        </mxCell>
        <mxCell id="9QbvSYVYQkTE8SDcvhou-17" value="userId = 50" style="rounded=0;whiteSpace=wrap;html=1;fontSize=10;fillColor=#f5f5f5;strokeColor=#666666;fontColor=#333333;" vertex="1" parent="1">
          <mxGeometry x="570" y="427" width="100" height="20" as="geometry" />
        </mxCell>
        <mxCell id="9QbvSYVYQkTE8SDcvhou-18" style="edgeStyle=orthogonalEdgeStyle;rounded=0;orthogonalLoop=1;jettySize=auto;html=1;exitX=0.5;exitY=1;exitDx=0;exitDy=0;entryX=0;entryY=0;entryDx=0;entryDy=0;fontSize=10;" edge="1" parent="1" source="9QbvSYVYQkTE8SDcvhou-19" target="9QbvSYVYQkTE8SDcvhou-21">
          <mxGeometry relative="1" as="geometry" />
        </mxCell>
        <mxCell id="9QbvSYVYQkTE8SDcvhou-19" value="Browser automatically stores the cookie and attaches it to follow up requests" style="rounded=0;whiteSpace=wrap;html=1;fontSize=10;fontStyle=0" vertex="1" parent="1">
          <mxGeometry x="390" y="425" width="160" height="40" as="geometry" />
        </mxCell>
        <mxCell id="9QbvSYVYQkTE8SDcvhou-20" style="edgeStyle=orthogonalEdgeStyle;rounded=0;orthogonalLoop=1;jettySize=auto;html=1;exitX=1;exitY=0.5;exitDx=0;exitDy=0;fontSize=10;" edge="1" parent="1" source="9QbvSYVYQkTE8SDcvhou-21" target="9QbvSYVYQkTE8SDcvhou-25">
          <mxGeometry relative="1" as="geometry" />
        </mxCell>
        <mxCell id="9QbvSYVYQkTE8SDcvhou-21" value="POST /prescriptions" style="rounded=0;whiteSpace=wrap;html=1;fontSize=10;fontStyle=1;fillColor=#f5f5f5;strokeColor=#666666;fontColor=#333333;" vertex="1" parent="1">
          <mxGeometry x="470" y="515" width="100" height="20" as="geometry" />
        </mxCell>
        <mxCell id="9QbvSYVYQkTE8SDcvhou-22" value="{ &lt;i&gt;some info&lt;/i&gt; }" style="rounded=0;whiteSpace=wrap;html=1;fontSize=10;fillColor=#f5f5f5;strokeColor=#666666;fontColor=#333333;" vertex="1" parent="1">
          <mxGeometry x="470" y="555" width="100" height="20" as="geometry" />
        </mxCell>
        <mxCell id="9QbvSYVYQkTE8SDcvhou-23" value="Cookie: userId = 50" style="rounded=0;whiteSpace=wrap;html=1;fontSize=10;fontStyle=1;fillColor=#f5f5f5;strokeColor=#666666;fontColor=#333333;" vertex="1" parent="1">
          <mxGeometry x="470" y="535" width="100" height="20" as="geometry" />
        </mxCell>
        <mxCell id="9QbvSYVYQkTE8SDcvhou-24" style="edgeStyle=orthogonalEdgeStyle;rounded=0;orthogonalLoop=1;jettySize=auto;html=1;exitX=0.5;exitY=1;exitDx=0;exitDy=0;fontSize=10;" edge="1" parent="1" source="9QbvSYVYQkTE8SDcvhou-25" target="9QbvSYVYQkTE8SDcvhou-27">
          <mxGeometry relative="1" as="geometry" />
        </mxCell>
        <mxCell id="9QbvSYVYQkTE8SDcvhou-25" value="Look at data in the cookie. Make sure it hasn&#39;t been tampered with" style="rounded=0;whiteSpace=wrap;html=1;fontSize=10;fontStyle=0" vertex="1" parent="1">
          <mxGeometry x="680" y="505" width="160" height="40" as="geometry" />
        </mxCell>
        <mxCell id="9QbvSYVYQkTE8SDcvhou-26" value="Some time later..." style="text;html=1;strokeColor=none;fillColor=none;align=left;verticalAlign=middle;whiteSpace=wrap;rounded=0;fontSize=10;fontStyle=2" vertex="1" parent="1">
          <mxGeometry x="473" y="477" width="60" height="20" as="geometry" />
        </mxCell>
        <mxCell id="9QbvSYVYQkTE8SDcvhou-27" value="Look at the userId in cookie to figure out who is making the request" style="rounded=0;whiteSpace=wrap;html=1;fontSize=10;fontStyle=0" vertex="1" parent="1">
          <mxGeometry x="680" y="555" width="160" height="40" as="geometry" />
        </mxCell>
        <mxCell id="9QbvSYVYQkTE8SDcvhou-28" value="" style="shape=curlyBracket;whiteSpace=wrap;html=1;rounded=1;fontSize=10;align=left;rotation=-180;" vertex="1" parent="1">
          <mxGeometry x="850" y="320" width="40" height="140" as="geometry" />
        </mxCell>
        <mxCell id="9QbvSYVYQkTE8SDcvhou-29" value="Steps that need to work with users stored in the DB" style="text;html=1;strokeColor=none;fillColor=none;align=left;verticalAlign=middle;whiteSpace=wrap;rounded=0;fontSize=18;fontStyle=2" vertex="1" parent="1">
          <mxGeometry x="890" y="380" width="160" height="20" as="geometry" />
        </mxCell>
        <mxCell id="9QbvSYVYQkTE8SDcvhou-30" value="Create Prescription in the repository" style="rounded=0;whiteSpace=wrap;html=1;fontSize=10;fontStyle=0" vertex="1" parent="1">
          <mxGeometry x="680" y="610" width="160" height="40" as="geometry" />
        </mxCell>
        <mxCell id="9QbvSYVYQkTE8SDcvhou-33" style="edgeStyle=orthogonalEdgeStyle;rounded=0;orthogonalLoop=1;jettySize=auto;html=1;exitX=0.5;exitY=1;exitDx=0;exitDy=0;fontSize=10;" edge="1" parent="1">
          <mxGeometry relative="1" as="geometry">
            <mxPoint x="760" y="600" as="sourcePoint" />
            <mxPoint x="760" y="610" as="targetPoint" />
          </mxGeometry>
        </mxCell>
        <mxCell id="9QbvSYVYQkTE8SDcvhou-34" value="GET /prescriptions" style="rounded=0;whiteSpace=wrap;html=1;fontSize=11;" vertex="1" parent="1">
          <mxGeometry x="410" y="-330" width="150" height="30" as="geometry" />
        </mxCell>
        <mxCell id="9QbvSYVYQkTE8SDcvhou-35" value="QS - nhi" style="rounded=0;whiteSpace=wrap;html=1;fontSize=11;" vertex="1" parent="1">
          <mxGeometry x="570" y="-330" width="150" height="30" as="geometry" />
        </mxCell>
        <mxCell id="9QbvSYVYQkTE8SDcvhou-36" value="Get all prescriptions by nhi" style="rounded=0;whiteSpace=wrap;html=1;fontSize=11;" vertex="1" parent="1">
          <mxGeometry x="730" y="-330" width="150" height="30" as="geometry" />
        </mxCell>
        <mxCell id="9QbvSYVYQkTE8SDcvhou-37" value="POST /prescriptions" style="rounded=0;whiteSpace=wrap;html=1;fontSize=11;" vertex="1" parent="1">
          <mxGeometry x="410" y="-210" width="150" height="30" as="geometry" />
        </mxCell>
        <mxCell id="9QbvSYVYQkTE8SDcvhou-38" value="Body - { patient: {nhi, name}, dat, medications }" style="rounded=0;whiteSpace=wrap;html=1;fontSize=9;" vertex="1" parent="1">
          <mxGeometry x="570" y="-210" width="150" height="30" as="geometry" />
        </mxCell>
        <mxCell id="9QbvSYVYQkTE8SDcvhou-39" value="Create new prescription" style="rounded=0;whiteSpace=wrap;html=1;fontSize=11;" vertex="1" parent="1">
          <mxGeometry x="730" y="-210" width="150" height="30" as="geometry" />
        </mxCell>
        <mxCell id="9QbvSYVYQkTE8SDcvhou-40" value="PATCH /prescriptions/:id" style="rounded=0;whiteSpace=wrap;html=1;fontSize=11;" vertex="1" parent="1">
          <mxGeometry x="410" y="-90" width="150" height="30" as="geometry" />
        </mxCell>
        <mxCell id="9QbvSYVYQkTE8SDcvhou-41" value="Body - { date, medications }" style="rounded=0;whiteSpace=wrap;html=1;fontSize=11;" vertex="1" parent="1">
          <mxGeometry x="570" y="-90" width="150" height="30" as="geometry" />
        </mxCell>
        <mxCell id="9QbvSYVYQkTE8SDcvhou-42" value="Update medicatiions of existing prescriptions" style="rounded=0;whiteSpace=wrap;html=1;fontSize=11;" vertex="1" parent="1">
          <mxGeometry x="730" y="-90" width="150" height="30" as="geometry" />
        </mxCell>
        <mxCell id="9QbvSYVYQkTE8SDcvhou-43" value="Need a fancy algorithm to find prescriotions by nhi from External API as well as from local db and also sync new/updated data in local db" style="rounded=0;whiteSpace=wrap;html=1;fontStyle=3;fillColor=#f8cecc;strokeColor=#b85450;" vertex="1" parent="1">
          <mxGeometry x="410" y="-290" width="470" height="30" as="geometry" />
        </mxCell>
        <mxCell id="9QbvSYVYQkTE8SDcvhou-44" value="Need to create new prescription in Local sb as well as on External server" style="rounded=0;whiteSpace=wrap;html=1;fontStyle=3;fillColor=#f8cecc;strokeColor=#b85450;" vertex="1" parent="1">
          <mxGeometry x="410" y="-170" width="470" height="30" as="geometry" />
        </mxCell>
        <mxCell id="9QbvSYVYQkTE8SDcvhou-45" value="Need to update existing prescription in Local DB as well as on External server" style="rounded=0;whiteSpace=wrap;html=1;fontStyle=3;fillColor=#f8cecc;strokeColor=#b85450;" vertex="1" parent="1">
          <mxGeometry x="410" y="-50" width="470" height="30" as="geometry" />
        </mxCell>
        <mxCell id="9QbvSYVYQkTE8SDcvhou-79" value="Server" style="rounded=0;whiteSpace=wrap;html=1;shadow=0;strokeWidth=1;fontSize=14;fontStyle=1;fillColor=#dae8fc;strokeColor=#6c8ebf;" vertex="1" parent="1">
          <mxGeometry x="510" y="27" width="400" height="30" as="geometry" />
        </mxCell>
        <mxCell id="9QbvSYVYQkTE8SDcvhou-80" value="" style="rounded=0;whiteSpace=wrap;html=1;shadow=0;strokeWidth=1;fontSize=14;fontStyle=1;fillColor=#dae8fc;strokeColor=#6c8ebf;" vertex="1" parent="1">
          <mxGeometry x="510" y="57" width="400" height="150" as="geometry" />
        </mxCell>
        <mxCell id="9QbvSYVYQkTE8SDcvhou-81" style="edgeStyle=orthogonalEdgeStyle;rounded=0;orthogonalLoop=1;jettySize=auto;html=1;exitX=1;exitY=0.5;exitDx=0;exitDy=0;strokeWidth=1;fontSize=14;" edge="1" parent="1" source="9QbvSYVYQkTE8SDcvhou-82">
          <mxGeometry relative="1" as="geometry">
            <mxPoint x="510" y="91.90476190476193" as="targetPoint" />
          </mxGeometry>
        </mxCell>
        <mxCell id="9QbvSYVYQkTE8SDcvhou-82" value="Request" style="rounded=0;whiteSpace=wrap;html=1;shadow=0;strokeWidth=1;fontSize=14;" vertex="1" parent="1">
          <mxGeometry x="410" y="72" width="70" height="40" as="geometry" />
        </mxCell>
        <mxCell id="9QbvSYVYQkTE8SDcvhou-83" style="edgeStyle=orthogonalEdgeStyle;rounded=0;orthogonalLoop=1;jettySize=auto;html=1;exitX=1;exitY=0.5;exitDx=0;exitDy=0;strokeWidth=1;fontSize=14;entryX=1;entryY=0.5;entryDx=0;entryDy=0;" edge="1" parent="1" target="9QbvSYVYQkTE8SDcvhou-84">
          <mxGeometry relative="1" as="geometry">
            <mxPoint x="510" y="141.90476190476193" as="sourcePoint" />
          </mxGeometry>
        </mxCell>
        <mxCell id="9QbvSYVYQkTE8SDcvhou-84" value="Response" style="rounded=0;whiteSpace=wrap;html=1;shadow=0;strokeWidth=1;fontSize=14;" vertex="1" parent="1">
          <mxGeometry x="410" y="122" width="70" height="40" as="geometry" />
        </mxCell>
        <mxCell id="9QbvSYVYQkTE8SDcvhou-85" style="edgeStyle=orthogonalEdgeStyle;rounded=0;orthogonalLoop=1;jettySize=auto;html=1;exitX=1;exitY=0.5;exitDx=0;exitDy=0;strokeWidth=1;fontSize=12;" edge="1" parent="1" source="9QbvSYVYQkTE8SDcvhou-86" target="9QbvSYVYQkTE8SDcvhou-88">
          <mxGeometry relative="1" as="geometry" />
        </mxCell>
        <mxCell id="9QbvSYVYQkTE8SDcvhou-86" value="Validate data contained in the request" style="rounded=0;whiteSpace=wrap;html=1;shadow=0;strokeWidth=1;fontSize=12;fontStyle=2" vertex="1" parent="1">
          <mxGeometry x="520" y="77" width="60" height="80" as="geometry" />
        </mxCell>
        <mxCell id="9QbvSYVYQkTE8SDcvhou-87" style="edgeStyle=orthogonalEdgeStyle;rounded=0;orthogonalLoop=1;jettySize=auto;html=1;exitX=1;exitY=0.5;exitDx=0;exitDy=0;entryX=0;entryY=0.5;entryDx=0;entryDy=0;strokeWidth=1;fontSize=12;" edge="1" parent="1" source="9QbvSYVYQkTE8SDcvhou-88" target="9QbvSYVYQkTE8SDcvhou-89">
          <mxGeometry relative="1" as="geometry" />
        </mxCell>
        <mxCell id="9QbvSYVYQkTE8SDcvhou-88" value="Make sure the user is authen-ticated" style="rounded=0;whiteSpace=wrap;html=1;shadow=0;strokeWidth=1;fontSize=12;fontStyle=2" vertex="1" parent="1">
          <mxGeometry x="600" y="77" width="60" height="80" as="geometry" />
        </mxCell>
        <mxCell id="9QbvSYVYQkTE8SDcvhou-89" value="Route the request to a particular function" style="rounded=0;whiteSpace=wrap;html=1;shadow=0;strokeWidth=1;fontSize=12;fontStyle=2" vertex="1" parent="1">
          <mxGeometry x="680" y="77" width="60" height="80" as="geometry" />
        </mxCell>
        <mxCell id="9QbvSYVYQkTE8SDcvhou-90" style="edgeStyle=orthogonalEdgeStyle;rounded=0;orthogonalLoop=1;jettySize=auto;html=1;exitX=1;exitY=0.5;exitDx=0;exitDy=0;entryX=0;entryY=0.5;entryDx=0;entryDy=0;strokeWidth=1;fontSize=12;" edge="1" parent="1" target="9QbvSYVYQkTE8SDcvhou-91">
          <mxGeometry relative="1" as="geometry">
            <mxPoint x="740" y="117" as="sourcePoint" />
          </mxGeometry>
        </mxCell>
        <mxCell id="9QbvSYVYQkTE8SDcvhou-91" value="Run business logic or access data through a repository" style="rounded=0;whiteSpace=wrap;html=1;shadow=0;strokeWidth=1;fontSize=10;fontStyle=2" vertex="1" parent="1">
          <mxGeometry x="760" y="77" width="60" height="80" as="geometry" />
        </mxCell>
        <mxCell id="9QbvSYVYQkTE8SDcvhou-92" style="edgeStyle=orthogonalEdgeStyle;rounded=0;orthogonalLoop=1;jettySize=auto;html=1;exitX=1;exitY=0.5;exitDx=0;exitDy=0;entryX=0;entryY=0.5;entryDx=0;entryDy=0;strokeWidth=1;fontSize=12;" edge="1" parent="1" target="9QbvSYVYQkTE8SDcvhou-93">
          <mxGeometry relative="1" as="geometry">
            <mxPoint x="820" y="117" as="sourcePoint" />
          </mxGeometry>
        </mxCell>
        <mxCell id="9QbvSYVYQkTE8SDcvhou-93" value="Store or retrieve info in a database" style="rounded=0;whiteSpace=wrap;html=1;shadow=0;strokeWidth=1;fontSize=12;fontStyle=2" vertex="1" parent="1">
          <mxGeometry x="840" y="77" width="60" height="80" as="geometry" />
        </mxCell>
        <mxCell id="9QbvSYVYQkTE8SDcvhou-94" value="Pipe" style="rounded=0;whiteSpace=wrap;html=1;shadow=0;strokeWidth=1;fontSize=12;fontStyle=1;fillColor=#ffe6cc;strokeColor=#d79b00;" vertex="1" parent="1">
          <mxGeometry x="520" y="167" width="60" height="40" as="geometry" />
        </mxCell>
        <mxCell id="9QbvSYVYQkTE8SDcvhou-95" value="Guard" style="rounded=0;whiteSpace=wrap;html=1;shadow=0;strokeWidth=1;fontSize=12;fontStyle=1;fillColor=#ffe6cc;strokeColor=#d79b00;" vertex="1" parent="1">
          <mxGeometry x="600" y="167" width="60" height="40" as="geometry" />
        </mxCell>
        <mxCell id="9QbvSYVYQkTE8SDcvhou-96" value="Controller" style="rounded=0;whiteSpace=wrap;html=1;shadow=0;strokeWidth=1;fontSize=12;fontStyle=1;fillColor=#ffe6cc;strokeColor=#d79b00;" vertex="1" parent="1">
          <mxGeometry x="680" y="167" width="60" height="40" as="geometry" />
        </mxCell>
        <mxCell id="9QbvSYVYQkTE8SDcvhou-97" value="Service" style="rounded=0;whiteSpace=wrap;html=1;shadow=0;strokeWidth=1;fontSize=12;fontStyle=1;fillColor=#ffe6cc;strokeColor=#d79b00;" vertex="1" parent="1">
          <mxGeometry x="760" y="167" width="60" height="40" as="geometry" />
        </mxCell>
        <mxCell id="9QbvSYVYQkTE8SDcvhou-98" value="Repository" style="rounded=0;whiteSpace=wrap;html=1;shadow=0;strokeWidth=1;fontSize=11;fontStyle=1;fillColor=#ffe6cc;strokeColor=#d79b00;" vertex="1" parent="1">
          <mxGeometry x="840" y="167" width="60" height="40" as="geometry" />
        </mxCell>
      </root>
    </mxGraphModel>
  </diagram>
</mxfile>
